<?xml version="1.0" encoding="UTF-8" standalone="no"?>
<!-- Created with Inkscape (http://www.inkscape.org/) -->

<svg
   xmlns:dc="http://purl.org/dc/elements/1.1/"
   xmlns:cc="http://creativecommons.org/ns#"
   xmlns:rdf="http://www.w3.org/1999/02/22-rdf-syntax-ns#"
   xmlns:svg="http://www.w3.org/2000/svg"
   xmlns="http://www.w3.org/2000/svg"
   xmlns:xlink="http://www.w3.org/1999/xlink"
   xmlns:sodipodi="http://sodipodi.sourceforge.net/DTD/sodipodi-0.dtd"
   xmlns:inkscape="http://www.inkscape.org/namespaces/inkscape"
   width="300"
   height="300"
   viewBox="0 0 79.374998 79.375002"
   version="1.1"
   id="svg934"
   inkscape:version="0.92.3 (2405546, 2018-03-11)"
   sodipodi:docname="icon.svg"
   inkscape:export-filename="C:\Users\Nassim\Desktop\algiers_r_user_logo\icon_64x64.png"
   inkscape:export-xdpi="20.48"
   inkscape:export-ydpi="20.48">
  <defs
     id="defs928">
    <linearGradient
       gradientTransform="translate(-112.58348,93.572539)"
       y2="191.68315"
       x2="137.07384"
       y1="168.90636"
       x1="143.62767"
       gradientUnits="userSpaceOnUse"
       id="linearGradient924-3"
       xlink:href="#linearGradient1664" />
    <linearGradient
       inkscape:collect="always"
       id="linearGradient1664">
      <stop
         style="stop-color:#0e2a8c;stop-opacity:1"
         offset="0"
         id="stop1660" />
      <stop
         style="stop-color:#011040;stop-opacity:1"
         offset="1"
         id="stop1662" />
    </linearGradient>
  </defs>
  <sodipodi:namedview
     id="base"
     pagecolor="#ffffff"
     bordercolor="#666666"
     borderopacity="1.0"
     inkscape:pageopacity="0.0"
     inkscape:pageshadow="2"
     inkscape:zoom="0.70710678"
     inkscape:cx="236.52883"
     inkscape:cy="260.8414"
     inkscape:document-units="px"
     inkscape:current-layer="layer1"
     showgrid="false"
     units="px"
     inkscape:window-width="1366"
     inkscape:window-height="705"
     inkscape:window-x="-8"
     inkscape:window-y="-8"
     inkscape:window-maximized="1" />
  <metadata
     id="metadata931">
    <rdf:RDF>
      <cc:Work
         rdf:about="">
        <dc:format>image/svg+xml</dc:format>
        <dc:type
           rdf:resource="http://purl.org/dc/dcmitype/StillImage" />
        <dc:title></dc:title>
      </cc:Work>
    </rdf:RDF>
  </metadata>
  <g
     inkscape:label="Calque 1"
     inkscape:groupmode="layer"
     id="layer1"
     transform="translate(0,-217.62498)">
    <g
       transform="matrix(1.6506858,0,0,1.6506858,-1.5796449,-191.67312)"
       id="logo-2">
      <path
         style="color:#000000;font-style:normal;font-variant:normal;font-weight:normal;font-stretch:normal;font-size:medium;line-height:normal;font-family:sans-serif;font-variant-ligatures:normal;font-variant-position:normal;font-variant-caps:normal;font-variant-numeric:normal;font-variant-alternates:normal;font-feature-settings:normal;text-indent:0;text-align:start;text-decoration:none;text-decoration-line:none;text-decoration-style:solid;text-decoration-color:#000000;letter-spacing:normal;word-spacing:normal;text-transform:none;writing-mode:lr-tb;direction:ltr;text-orientation:mixed;dominant-baseline:auto;baseline-shift:baseline;text-anchor:start;white-space:normal;shape-padding:0;clip-rule:nonzero;display:inline;overflow:visible;visibility:visible;opacity:1;isolation:auto;mix-blend-mode:normal;color-interpolation:sRGB;color-interpolation-filters:linearRGB;solid-color:#000000;solid-opacity:1;vector-effect:none;fill:#010640;fill-opacity:1;fill-rule:nonzero;stroke:none;stroke-width:1.74661136;stroke-linecap:round;stroke-linejoin:round;stroke-miterlimit:4;stroke-dasharray:none;stroke-dashoffset:0;stroke-opacity:1;paint-order:fill markers stroke;color-rendering:auto;image-rendering:auto;shape-rendering:auto;text-rendering:auto;enable-background:accumulate"
         d="m 25.082032,250.00781 c -0.633207,-0.0142 -1.257667,0.14759 -1.804687,0.4668 l -16.0664065,9.27148 a 0.87339303,0.87339303 0 0 0 0,0.002 c -1.060552,0.61239 -1.716199,1.74767 -1.714844,2.97264 v 18.56055 c -3.89e-4,1.22399 0.654313,2.36027 1.714844,2.97266 l 16.0742185,9.27929 c 1.059392,0.61158 2.368342,0.61158 3.427735,0 l 16.076172,-9.27929 c 1.060644,-0.61244 1.715488,-1.74876 1.714843,-2.97266 v -0.002 -18.5586 -0.002 c 2.32e-4,-1.22353 -0.654615,-2.35851 -1.714843,-2.9707 a 0.87339303,0.87339303 0 0 0 0,-0.002 L 26.72461,250.47851 c -0.492647,-0.28874 -1.050382,-0.4499 -1.621093,-0.46875 a 0.87339303,0.87339303 0 0 0 -0.02148,-0.002 z m -0.04297,3.01172 a 0.87339303,0.87339303 0 0 0 0.002,0 c 0.254146,0.008 0.504951,0.0802 0.724609,0.20899 a 0.87339303,0.87339303 0 0 0 0.0039,0.004 l 15.107424,8.7168 c 0.473054,0.27316 0.76421,0.77913 0.763672,1.32617 v 17.44922 a 0.87339303,0.87339303 0 0 0 0,0.002 c 6.93e-4,0.54692 -0.291099,1.05328 -0.763672,1.32617 l -15.113283,8.72266 c -0.472814,0.27295 -1.056483,0.27295 -1.529297,0 L 9.1250005,282.05273 c -0.473018,-0.27314 -0.766166,-0.78019 -0.765625,-1.32617 a 0.87339303,0.87339303 0 0 0 0,-0.002 v -17.44922 a 0.87339303,0.87339303 0 0 0 0,-0.002 c -6.24e-4,-0.54579 0.292066,-1.05078 0.765625,-1.32422 l 15.1035055,-8.71679 a 0.87339303,0.87339303 0 0 0 0.0039,-0.004 c 0.244584,-0.14314 0.524144,-0.21527 0.80664,-0.20899 z"
         id="border-7-1"
         inkscape:connector-curvature="0" />
      <path
         id="border-73"
         d="m 25.06227,250.8818 c -0.47279,-0.0106 -0.9401,0.11047 -1.34824,0.34933 l -16.06622,9.2723 c -0.79063,0.45654 -1.27896,1.30293 -1.27795,2.21589 v 18.56165 c -8e-4,0.91297 0.48733,1.76039 1.27795,2.21692 l 16.07345,9.27902 c 0.78977,0.45593 1.76512,0.45593 2.55489,0 l 16.07654,-9.27902 c 0.79064,-0.45653 1.27845,-1.30395 1.27745,-2.21692 v -18.56165 c 7.9e-4,-0.91299 -0.48681,-1.75936 -1.27745,-2.21589 l -16.06983,-9.2723 c -0.36718,-0.2152 -0.78231,-0.33528 -1.20767,-0.34933 a 0.8518284,0.8518284 0 0 0 -0.0129,0 z m -0.004,1.26504 a 0.80079813,0.80079813 0 0 1 0.0124,0 c 0.39987,0.0132 0.79066,0.12635 1.13584,0.32866 l 15.1071,8.71678 c 0.74325,0.42918 1.2013,1.2248 1.20045,2.08308 v 17.44958 c 10e-4,0.85827 -0.4572,1.65491 -1.20045,2.08411 l -15.11381,8.7235 c -0.74246,0.42861 -1.65947,0.42861 -2.40193,0 l -15.11019,-8.7235 c -0.74327,-0.4292 -1.20285,-1.22584 -1.202,-2.08411 v -17.44958 c -0.001,-0.85826 0.45872,-1.6539 1.202,-2.08308 l 15.10399,-8.71678 c 0.38369,-0.22455 0.82213,-0.33854 1.26659,-0.32866 z"
         style="color:#000000;font-style:normal;font-variant:normal;font-weight:normal;font-stretch:normal;font-size:medium;line-height:normal;font-family:sans-serif;font-variant-ligatures:normal;font-variant-position:normal;font-variant-caps:normal;font-variant-numeric:normal;font-variant-alternates:normal;font-feature-settings:normal;text-indent:0;text-align:start;text-decoration:none;text-decoration-line:none;text-decoration-style:solid;text-decoration-color:#000000;letter-spacing:normal;word-spacing:normal;text-transform:none;writing-mode:lr-tb;direction:ltr;text-orientation:mixed;dominant-baseline:auto;baseline-shift:baseline;text-anchor:start;white-space:normal;shape-padding:0;clip-rule:nonzero;display:inline;overflow:visible;visibility:visible;opacity:1;isolation:auto;mix-blend-mode:normal;color-interpolation:sRGB;color-interpolation-filters:linearRGB;solid-color:#000000;solid-opacity:1;vector-effect:none;fill:#ffffff;fill-opacity:1;fill-rule:nonzero;stroke:none;stroke-width:0.1;stroke-linecap:round;stroke-linejoin:round;stroke-miterlimit:4;stroke-dasharray:none;stroke-dashoffset:0;stroke-opacity:1;paint-order:fill markers stroke;color-rendering:auto;image-rendering:auto;shape-rendering:auto;text-rendering:auto;enable-background:accumulate"
         inkscape:connector-curvature="0" />
      <path
         id="hexagon-1"
         d="m 25.05827,252.14684 c -0.22223,-0.005 -0.44316,0.0211 -0.65629,0.0765 -0.21313,0.0553 -0.41846,0.13991 -0.6103,0.25218 L 8.68769,261.1923 c -0.18583,0.1073 -0.35417,0.23767 -0.50179,0.38602 -0.14761,0.14836 -0.27492,0.31463 -0.37878,0.49455 -0.10387,0.17992 -0.18418,0.37317 -0.23875,0.57516 -0.0546,0.20199 -0.083,0.41278 -0.0827,0.62735 v 17.44958 c -2.1e-4,0.21457 0.0281,0.42526 0.0827,0.62735 0.0546,0.20209 0.13542,0.39563 0.23926,0.57568 0.10385,0.18004 0.23068,0.3466 0.37827,0.49505 0.1476,0.14846 0.31597,0.27873 0.50179,0.38603 l 15.11019,8.7235 c 0.18561,0.10715 0.38197,0.18775 0.58394,0.24133 0.20198,0.0536 0.40959,0.0801 0.61702,0.0801 0.20744,0 0.41453,-0.0265 0.6165,-0.0801 0.20198,-0.0536 0.39885,-0.13418 0.58447,-0.24133 l 15.11381,-8.7235 c 0.18581,-0.1073 0.3538,-0.23757 0.50126,-0.38603 0.14747,-0.14845 0.27409,-0.31501 0.37776,-0.49505 0.10367,-0.18005 0.18432,-0.37359 0.23874,-0.57568 0.0544,-0.20209 0.083,-0.41278 0.0827,-0.62735 v -17.44958 c 2.2e-4,-0.21457 -0.0282,-0.42536 -0.0827,-0.62735 -0.0544,-0.20199 -0.13509,-0.39524 -0.23874,-0.57516 -0.10366,-0.17992 -0.23031,-0.34619 -0.37776,-0.49455 -0.14745,-0.14835 -0.31545,-0.27872 -0.50126,-0.38602 l -15.1071,-8.71678 c -0.17259,-0.10115 -0.35694,-0.1799 -0.54777,-0.23513 -0.19083,-0.0552 -0.38814,-0.0869 -0.58807,-0.0935 a 0.80079813,0.80079813 0 0 0 -0.0124,0 z"
         style="opacity:1;vector-effect:none;fill:url(#linearGradient924-3);fill-opacity:1;stroke:none;stroke-width:1;stroke-linecap:round;stroke-linejoin:round;stroke-miterlimit:4;stroke-dasharray:none;stroke-dashoffset:0;stroke-opacity:1"
         inkscape:connector-curvature="0" />
      <path
         id="r_text-8"
         d="m 24.73955,267.73917 v 4.18269 h 0.84439 v -1.52807 h 0.4191 l 0.62942,1.52807 h 0.90795 v -0.0403 l -0.73277,-1.71204 c 0.20205,-0.11107 0.35321,-0.26346 0.45424,-0.45785 0.10102,-0.1944 0.15193,-0.4308 0.15193,-0.70849 0,-0.20203 -0.0294,-0.38075 -0.0873,-0.5364 -0.058,-0.15565 -0.14459,-0.28823 -0.26045,-0.39739 -0.11491,-0.11012 -0.25436,-0.19251 -0.41755,-0.24753 -0.16318,-0.055 -0.3501,-0.0827 -0.56172,-0.0827 z m 0.84439,0.70383 h 0.49403 c 0.16374,0 0.28653,0.0527 0.36845,0.15762 0.0819,0.10492 0.12299,0.26209 0.12299,0.4718 0,0.18768 -0.0423,0.33763 -0.12661,0.45062 -0.0843,0.11111 -0.21077,0.16691 -0.3793,0.16691 h -0.47956 z"
         style="opacity:1;vector-effect:none;fill:#ffffff;fill-opacity:0;stroke:none;stroke-width:1;stroke-linecap:round;stroke-linejoin:round;stroke-miterlimit:4;stroke-dasharray:none;stroke-dashoffset:0;stroke-opacity:1"
         inkscape:connector-curvature="0" />
      <g
         aria-label="ALGIERS R USER"
         style="font-style:normal;font-weight:normal;font-size:4.48043156px;line-height:1.25;font-family:sans-serif;letter-spacing:0px;word-spacing:0px;fill:#ffffff;fill-opacity:1;stroke:none;stroke-width:0.11201078"
         id="text1788-9-6-8-9">
        <path
           inkscape:connector-curvature="0"
           d="m 12.249897,280.26124 h -1.19449 l -0.271276,0.8904 h -0.260338 l 1.015098,-3.1853 h 0.231897 l 1.015098,3.1853 h -0.260337 z m -1.122295,-0.23408 h 1.050101 l -0.525051,-1.7086 z"
           style="font-style:normal;font-variant:normal;font-weight:normal;font-stretch:normal;font-family:'Roboto Condensed Light';-inkscape-font-specification:'Roboto Condensed Light, ';fill:#ffffff;stroke-width:0.11201078"
           id="path1077" />
        <path
           inkscape:connector-curvature="0"
           d="m 13.512206,280.91974 h 1.312627 v 0.2319 h -1.564214 v -3.1853 h 0.251587 z"
           style="font-style:normal;font-variant:normal;font-weight:normal;font-stretch:normal;font-family:'Roboto Condensed Light';-inkscape-font-specification:'Roboto Condensed Light, ';fill:#ffffff;stroke-width:0.11201078"
           id="path1079" />
        <path
           inkscape:connector-curvature="0"
           d="m 17.143806,280.78192 q -0.159703,0.20564 -0.402539,0.31065 -0.242836,0.10283 -0.531614,0.10283 -0.490047,0 -0.770074,-0.32816 -0.280027,-0.32816 -0.290965,-0.91009 v -0.77445 q 0,-0.61037 0.264713,-0.93415 0.2669,-0.32597 0.759135,-0.32597 0.43973,0 0.689129,0.24284 0.249399,0.24283 0.280027,0.70006 h -0.249399 q -0.03938,-0.36753 -0.216583,-0.53598 -0.175017,-0.17065 -0.500986,-0.17065 -0.389413,0 -0.584119,0.26034 -0.192518,0.25815 -0.192518,0.75914 v 0.73507 q 0,0.4988 0.212208,0.77445 0.214395,0.27565 0.599432,0.27565 0.417853,0 0.682566,-0.26471 v -0.82915 h -0.69788 v -0.23408 h 0.949467 z"
           style="font-style:normal;font-variant:normal;font-weight:normal;font-stretch:normal;font-family:'Roboto Condensed Light';-inkscape-font-specification:'Roboto Condensed Light, ';fill:#ffffff;stroke-width:0.11201078"
           id="path1081" />
        <path
           inkscape:connector-curvature="0"
           d="m 18.158904,281.15164 h -0.249399 v -3.1853 h 0.249399 z"
           style="font-style:normal;font-variant:normal;font-weight:normal;font-stretch:normal;font-family:'Roboto Condensed Light';-inkscape-font-specification:'Roboto Condensed Light, ';fill:#ffffff;stroke-width:0.11201078"
           id="path1083" />
        <path
           inkscape:connector-curvature="0"
           d="m 20.442874,279.62681 h -1.236057 v 1.29293 h 1.422012 v 0.2319 h -1.671411 v -3.1853 h 1.660473 v 0.23627 h -1.411074 v 1.1923 h 1.236057 z"
           style="font-style:normal;font-variant:normal;font-weight:normal;font-stretch:normal;font-family:'Roboto Condensed Light';-inkscape-font-specification:'Roboto Condensed Light, ';fill:#ffffff;stroke-width:0.11201078"
           id="path1085" />
        <path
           inkscape:connector-curvature="0"
           d="m 22.179916,279.82589 h -0.743822 v 1.32575 h -0.251587 v -3.1853 h 0.872897 q 0.435354,0 0.673815,0.24939 0.240648,0.24722 0.240648,0.68913 0,0.30847 -0.148765,0.54256 -0.148764,0.23189 -0.400351,0.32159 l 0.662877,1.35419 v 0.0284 h -0.266901 z m -0.743822,-0.2319 h 0.665064 q 0.282215,0 0.450668,-0.19252 0.168454,-0.1947 0.168454,-0.49661 0,-0.33472 -0.175017,-0.51848 -0.175017,-0.18377 -0.490047,-0.18377 h -0.619122 z"
           style="font-style:normal;font-variant:normal;font-weight:normal;font-stretch:normal;font-family:'Roboto Condensed Light';-inkscape-font-specification:'Roboto Condensed Light, ';fill:#ffffff;stroke-width:0.11201078"
           id="path1087" />
        <path
           inkscape:connector-curvature="0"
           d="m 25.153015,280.36844 q 0,-0.2669 -0.15314,-0.42004 -0.150952,-0.15314 -0.566617,-0.29315 -0.415665,-0.14002 -0.610371,-0.31284 -0.255962,-0.22534 -0.255962,-0.59506 0,-0.36535 0.251586,-0.59506 0.251587,-0.22971 0.64975,-0.22971 0.406915,0 0.665064,0.2669 0.25815,0.2669 0.25815,0.68694 h -0.251586 q 0,-0.32159 -0.18158,-0.51848 -0.179393,-0.19909 -0.490048,-0.19909 -0.301904,0 -0.476921,0.16408 -0.172829,0.16189 -0.172829,0.42004 0,0.24065 0.164079,0.39379 0.164078,0.15314 0.522862,0.27346 0.358785,0.11814 0.542553,0.24722 0.183767,0.12688 0.271276,0.29971 0.08751,0.17283 0.08751,0.40692 0,0.37409 -0.253774,0.6038 -0.251587,0.22753 -0.667252,0.22753 -0.280027,0 -0.511924,-0.11376 -0.22971,-0.11595 -0.360972,-0.33035 -0.129075,-0.21658 -0.129075,-0.50974 h 0.249399 q 0,0.33691 0.203457,0.52943 0.203457,0.19252 0.549115,0.19252 0.301904,0 0.483484,-0.16189 0.183768,-0.16189 0.183768,-0.43317 z"
           style="font-style:normal;font-variant:normal;font-weight:normal;font-stretch:normal;font-family:'Roboto Condensed Light';-inkscape-font-specification:'Roboto Condensed Light, ';fill:#ffffff;stroke-width:0.11201078"
           id="path1089" />
        <path
           inkscape:connector-curvature="0"
           d="m 27.826396,279.98778 h -0.319405 v 1.16386 h -0.643187 v -3.1853 h 1.026036 q 0.483484,0 0.746009,0.25158 0.264713,0.2494 0.264713,0.71101 0,0.63443 -0.461607,0.88821 l 0.557867,1.30387 v 0.0306 h -0.691317 z m -0.319405,-0.53599 h 0.365347 q 0.192519,0 0.288778,-0.12689 0.09626,-0.12907 0.09626,-0.34347 0,-0.47911 -0.374098,-0.47911 h -0.376286 z"
           style="font-style:normal;font-variant:normal;font-weight:bold;font-stretch:normal;font-family:'Roboto Condensed';-inkscape-font-specification:'Roboto Condensed,  Bold';stroke-width:0.11201078"
           id="path1091" />
        <path
           inkscape:connector-curvature="0"
           d="m 32.32433,277.96634 v 2.2599 q -0.0022,0.46161 -0.249399,0.71538 -0.245024,0.25378 -0.69788,0.25378 -0.459419,0 -0.704443,-0.2494 -0.242836,-0.25159 -0.242836,-0.72851 v -2.25115 h 0.249399 v 2.2424 q 0,0.75476 0.69788,0.75476 0.686941,0 0.695692,-0.73288 v -2.26428 z"
           style="font-style:normal;font-variant:normal;font-weight:normal;font-stretch:normal;font-family:'Roboto Condensed Light';-inkscape-font-specification:'Roboto Condensed Light, ';fill:#ffffff;stroke-width:0.11201078"
           id="path1093" />
        <path
           inkscape:connector-curvature="0"
           d="m 34.525167,280.36844 q 0,-0.2669 -0.15314,-0.42004 -0.150952,-0.15314 -0.566617,-0.29315 -0.415665,-0.14002 -0.610371,-0.31284 -0.255962,-0.22534 -0.255962,-0.59506 0,-0.36535 0.251587,-0.59506 0.251586,-0.22971 0.64975,-0.22971 0.406914,0 0.665064,0.2669 0.25815,0.2669 0.25815,0.68694 h -0.251587 q 0,-0.32159 -0.18158,-0.51848 -0.179392,-0.19909 -0.490047,-0.19909 -0.301904,0 -0.476921,0.16408 -0.172829,0.16189 -0.172829,0.42004 0,0.24065 0.164078,0.39379 0.164078,0.15314 0.522863,0.27346 0.358784,0.11814 0.542552,0.24722 0.183768,0.12688 0.271276,0.29971 0.08751,0.17283 0.08751,0.40692 0,0.37409 -0.253775,0.6038 -0.251587,0.22753 -0.667252,0.22753 -0.280027,0 -0.511924,-0.11376 -0.22971,-0.11595 -0.360972,-0.33035 -0.129075,-0.21658 -0.129075,-0.50974 h 0.249399 q 0,0.33691 0.203457,0.52943 0.203457,0.19252 0.549115,0.19252 0.301904,0 0.483484,-0.16189 0.183768,-0.16189 0.183768,-0.43317 z"
           style="font-style:normal;font-variant:normal;font-weight:normal;font-stretch:normal;font-family:'Roboto Condensed Light';-inkscape-font-specification:'Roboto Condensed Light, ';fill:#ffffff;stroke-width:0.11201078"
           id="path1095" />
        <path
           inkscape:connector-curvature="0"
           d="m 36.833202,279.62681 h -1.236056 v 1.29293 h 1.422012 v 0.2319 h -1.671411 v -3.1853 h 1.660472 v 0.23627 h -1.411073 v 1.1923 h 1.236056 z"
           style="font-style:normal;font-variant:normal;font-weight:normal;font-stretch:normal;font-family:'Roboto Condensed Light';-inkscape-font-specification:'Roboto Condensed Light, ';fill:#ffffff;stroke-width:0.11201078"
           id="path1097" />
        <path
           inkscape:connector-curvature="0"
           d="m 38.570244,279.82589 h -0.743822 v 1.32575 h -0.251586 v -3.1853 h 0.872896 q 0.435355,0 0.673815,0.24939 0.240648,0.24722 0.240648,0.68913 0,0.30847 -0.148764,0.54256 -0.148764,0.23189 -0.400351,0.32159 l 0.662876,1.35419 v 0.0284 h -0.266901 z m -0.743822,-0.2319 h 0.665064 q 0.282215,0 0.450669,-0.19252 0.168453,-0.1947 0.168453,-0.49661 0,-0.33472 -0.175016,-0.51848 -0.175017,-0.18377 -0.490048,-0.18377 h -0.619122 z"
           style="font-style:normal;font-variant:normal;font-weight:normal;font-stretch:normal;font-family:'Roboto Condensed Light';-inkscape-font-specification:'Roboto Condensed Light, ';fill:#ffffff;stroke-width:0.11201078"
           id="path1099" />
      </g>
      <path
         inkscape:connector-curvature="0"
         style="color:#000000;font-style:normal;font-variant:normal;font-weight:normal;font-stretch:normal;font-size:medium;line-height:normal;font-family:sans-serif;font-variant-ligatures:normal;font-variant-position:normal;font-variant-caps:normal;font-variant-numeric:normal;font-variant-alternates:normal;font-feature-settings:normal;text-indent:0;text-align:start;text-decoration:none;text-decoration-line:none;text-decoration-style:solid;text-decoration-color:#000000;letter-spacing:normal;word-spacing:normal;text-transform:none;writing-mode:lr-tb;direction:ltr;text-orientation:mixed;dominant-baseline:auto;baseline-shift:baseline;text-anchor:start;white-space:normal;shape-padding:0;clip-rule:nonzero;display:inline;overflow:visible;visibility:visible;opacity:1;isolation:auto;mix-blend-mode:normal;color-interpolation:sRGB;color-interpolation-filters:linearRGB;solid-color:#000000;solid-opacity:1;vector-effect:none;fill:#ffffff;fill-opacity:1;fill-rule:nonzero;stroke:none;stroke-width:0.22683805;stroke-linecap:round;stroke-linejoin:round;stroke-miterlimit:4;stroke-dasharray:none;stroke-dashoffset:0;stroke-opacity:1;color-rendering:auto;image-rendering:auto;shape-rendering:auto;text-rendering:auto;enable-background:accumulate"
         d="m 24.999413,275.10981 c -4.526708,0.002 -8.985055,0.27179 -13.113372,0.78586 v 0.23163 c 4.125386,-0.51632 8.58367,-0.78924 13.1129,-0.79102 h 4.8e-4 c 4.530629,0.003 8.989458,0.27696 13.114307,0.79477 v -0.23164 c -4.127027,-0.51529 -8.584848,-0.78663 -13.111956,-0.7896 -7.2e-4,-10e-6 -9.12e-4,-10e-6 -0.0018,0 z"
         id="path1598-4-4-3-6-7-1-0-8-4" />
      <path
         style="opacity:1;vector-effect:none;fill:#ffffff;fill-opacity:1;stroke:none;stroke-width:0.90735221;stroke-linecap:round;stroke-linejoin:round;stroke-miterlimit:4;stroke-dasharray:none;stroke-dashoffset:0;stroke-opacity:1"
         d="m 20.471239,261.77055 v 4.7e-4 c -0.329305,0.021 -0.653097,0.21582 -0.84306,0.54484 l -5.995661,10.38445 c -0.289462,0.50137 -0.154696,1.11722 0.301963,1.38087 0.456664,0.26366 1.057183,0.0723 1.346645,-0.42903 l 5.995661,-10.38445 c 0.289465,-0.50136 0.154697,-1.11722 -0.301962,-1.38087 -0.114163,-0.0659 -0.237401,-0.10311 -0.362451,-0.11441 -0.04691,-0.005 -0.09409,-0.005 -0.141135,-0.002 z m 11.596987,0.32353 v 4.7e-4 c -0.329314,0.0211 -0.653096,0.21629 -0.843059,0.54531 l -6.908584,11.96507 c -0.09755,0.16896 -0.143062,0.35039 -0.148169,0.5275 0.27702,-0.002 0.553276,-0.006 0.830869,-0.007 h 9.39e-4 c 8.86e-4,-10e-6 6.86e-4,-10e-6 0.0014,0 0.403155,2.7e-4 0.805045,0.005 1.206918,0.01 l 6.665231,-11.54401 c 0.289462,-0.50136 0.154696,-1.11769 -0.301963,-1.38134 -0.114163,-0.0659 -0.237391,-0.10311 -0.362451,-0.11441 -0.04691,-0.005 -0.0941,-0.005 -0.141135,-0.002 z m -14.799018,0.1205 v 4.7e-4 c -0.329405,0.021 -0.653565,0.21582 -0.843528,0.54485 l -4.852513,8.40527 c -0.289465,0.50137 -0.155167,1.11722 0.301494,1.38087 0.456652,0.26366 1.057649,0.0723 1.347114,-0.42903 l 4.852514,-8.40527 c 0.289462,-0.50137 0.154686,-1.11722 -0.301966,-1.38087 -0.114163,-0.0659 -0.23693,-0.10312 -0.36198,-0.11441 -0.04691,-0.005 -0.09408,-0.005 -0.141135,-0.002 z m 5.428776,0.80133 v 4.7e-4 c -0.329314,0.0211 -0.653104,0.2163 -0.843059,0.54532 l -6.128824,10.6156 c -0.270093,0.46781 -0.167389,1.03141 0.218032,1.31945 0.399412,-0.0329 0.800202,-0.0638 1.203633,-0.0924 0.08633,-0.0776 0.164813,-0.16763 0.226941,-0.27524 l 6.128826,-10.6156 c 0.289462,-0.50136 0.154696,-1.11722 -0.301963,-1.38088 -0.114163,-0.0659 -0.237391,-0.10357 -0.362451,-0.11487 -0.04691,-0.005 -0.09408,-0.005 -0.141135,-0.002 z m 11.750784,0.0577 v 4.7e-4 c -0.329405,0.0211 -0.653575,0.2163 -0.84353,0.54532 l -4.121987,7.13974 c -0.289453,0.50137 -0.155158,1.11722 0.301494,1.38088 0.456662,0.26365 1.057649,0.0723 1.347114,-0.42903 l 4.121987,-7.13975 c 0.289465,-0.50136 0.154699,-1.11722 -0.301963,-1.38087 -0.114163,-0.0659 -0.23693,-0.10358 -0.36198,-0.11488 -0.04691,-0.005 -0.09408,-0.005 -0.141135,-0.002 z m -20.712155,0.15708 c -0.329425,0.021 -0.653575,0.21583 -0.84353,0.54485 l -2.353344,4.0765 c -0.289463,0.50135 -0.154771,1.11718 0.301962,1.38088 0.456717,0.26368 1.057181,0.0723 1.346646,-0.42904 l 2.353814,-4.07603 c 0.289463,-0.50135 0.154769,-1.11766 -0.301965,-1.38134 -0.11418,-0.066 -0.237379,-0.1031 -0.362448,-0.11441 -0.04691,-0.005 -0.09409,-0.005 -0.141135,-9.4e-4 z m 22.948277,0.99498 c -0.304553,0.0213 -0.592937,0.18909 -0.757721,0.47451 l -1.779428,3.082 c -0.263657,0.45665 -0.108266,1.03656 0.348383,1.30022 0.456662,0.26365 1.036568,0.10828 1.300226,-0.34838 l 1.779427,-3.08199 c 0.263647,-0.45667 0.108276,-1.03658 -0.348383,-1.30023 -0.171247,-0.0989 -0.359772,-0.13891 -0.542504,-0.12613 z m -12.776239,1.79631 v 4.7e-4 c -0.329405,0.0211 -0.653565,0.2163 -0.843527,0.54531 l -4.733418,8.19849 c -0.104946,0.18177 -0.152214,0.37859 -0.150512,0.5683 0.689177,-0.0421 1.383765,-0.077 2.081858,-0.10644 l 4.45068,-7.70851 c 0.289452,-0.50136 0.155164,-1.11722 -0.301495,-1.38087 -0.114173,-0.0659 -0.237401,-0.10357 -0.362451,-0.11488 -0.04691,-0.005 -0.09408,-0.005 -0.141135,-0.002 z m 14.684611,9.4e-4 c -0.304551,0.0213 -0.592947,0.18911 -0.757722,0.47451 l -0.510149,0.88385 c -0.26365,0.45666 -0.10827,1.03658 0.348382,1.30023 0.45666,0.26365 1.036576,0.10827 1.300226,-0.34839 l 0.510149,-0.88385 c 0.26365,-0.45666 0.108274,-1.03658 -0.348385,-1.30022 -0.171245,-0.0989 -0.359769,-0.1389 -0.542501,-0.12613 z m -12.118392,0.65737 c -0.329405,0.021 -0.653574,0.2163 -0.843527,0.54532 l -4.253277,7.36716 c -0.110754,0.19183 -0.158622,0.40002 -0.15098,0.59924 0.674986,-0.0226 1.352083,-0.0414 2.032627,-0.0521 l 4.020238,-6.96251 c 0.289464,-0.50136 0.154696,-1.11722 -0.301963,-1.38087 -0.114163,-0.0659 -0.23693,-0.10358 -0.361983,-0.11488 -0.04691,-0.005 -0.09407,-0.005 -0.141135,-9.4e-4 z"
         id="rect1705-7-6"
         inkscape:connector-curvature="0" />
    </g>
  </g>
</svg>
